<?xml version="1.0" encoding="UTF-8" standalone="no"?>
<!DOCTYPE svg PUBLIC "-//W3C//DTD SVG 1.1//EN"
 "http://www.w3.org/Graphics/SVG/1.1/DTD/svg11.dtd">
<!-- Generated by graphviz version 9.0.0 (20230911.1827)
 -->
<!-- Pages: 1 -->
<svg width="2601pt" height="476pt"
 viewBox="0.00 0.00 2601.46 476.00" xmlns="http://www.w3.org/2000/svg" xmlns:xlink="http://www.w3.org/1999/xlink">
<g id="graph0" class="graph" transform="scale(1 1) rotate(0) translate(4 472)">
<polygon fill="white" stroke="none" points="-4,4 -4,-472 2597.46,-472 2597.46,4 -4,4"/>
<!-- root_&#45;1 -->
<g id="node1" class="node">
<title>root_&#45;1</title>
<ellipse fill="lightblue" stroke="lightblue" cx="2065.04" cy="-450" rx="38.04" ry="18"/>
<text text-anchor="middle" x="2065.04" y="-444.95" font-family="Times,serif" font-size="14.00">root_&#45;1</text>
</g>
<!-- Parse_0 -->
<g id="node2" class="node">
<title>Parse_0</title>
<ellipse fill="lightgreen" stroke="lightgreen" cx="690.04" cy="-378" rx="40.09" ry="18"/>
<text text-anchor="middle" x="690.04" y="-372.95" font-family="Times,serif" font-size="14.00">Parse_0</text>
</g>
<!-- root_&#45;1&#45;&gt;Parse_0 -->
<g id="edge1" class="edge">
<title>root_&#45;1&#45;&gt;Parse_0</title>
<path fill="none" stroke="black" d="M2026.97,-447.18C1833.65,-437.63 962.03,-393.27 741.05,-381.74"/>
<polygon fill="black" stroke="black" points="741.5,-378.26 731.33,-381.23 741.13,-385.25 741.5,-378.26"/>
</g>
<!-- root_&#45;1&#45;&gt;Parse_0 -->
<g id="edge43" class="edge">
<title>root_&#45;1&#45;&gt;Parse_0</title>
<path fill="none" stroke="black" d="M2027.11,-446.94C1834.12,-436.83 962.34,-392.45 741.14,-381.46"/>
<polygon fill="black" stroke="black" points="741.57,-377.98 731.41,-380.98 741.23,-384.97 741.57,-377.98"/>
</g>
<!-- do_register_alloc_0 -->
<g id="node24" class="node">
<title>do_register_alloc_0</title>
<ellipse fill="lightblue" stroke="lightblue" cx="2219.04" cy="-378" rx="84.11" ry="18"/>
<text text-anchor="middle" x="2219.04" y="-372.95" font-family="Times,serif" font-size="14.00">do_register_alloc_0</text>
</g>
<!-- root_&#45;1&#45;&gt;do_register_alloc_0 -->
<g id="edge41" class="edge">
<title>root_&#45;1&#45;&gt;do_register_alloc_0</title>
<path fill="none" stroke="black" d="M2088.93,-435.67C2110.35,-425.27 2142.25,-410.66 2169.15,-398.88"/>
<polygon fill="black" stroke="black" points="2170.4,-402.15 2178.17,-394.96 2167.61,-395.73 2170.4,-402.15"/>
</g>
<!-- root_&#45;1&#45;&gt;do_register_alloc_0 -->
<g id="edge69" class="edge">
<title>root_&#45;1&#45;&gt;do_register_alloc_0</title>
<path fill="none" stroke="black" d="M2094.16,-438.06C2118.23,-427.91 2152.47,-412.53 2179.06,-400.01"/>
<polygon fill="black" stroke="black" points="2180.31,-403.29 2187.84,-395.84 2177.31,-396.97 2180.31,-403.29"/>
</g>
<!-- Interpret_0 -->
<g id="node25" class="node">
<title>Interpret_0</title>
<ellipse fill="lightgreen" stroke="lightgreen" cx="2065.04" cy="-378" rx="51.86" ry="18"/>
<text text-anchor="middle" x="2065.04" y="-372.95" font-family="Times,serif" font-size="14.00">Interpret_0</text>
</g>
<!-- root_&#45;1&#45;&gt;Interpret_0 -->
<g id="edge42" class="edge">
<title>root_&#45;1&#45;&gt;Interpret_0</title>
<path fill="none" stroke="black" d="M2059.16,-432.05C2058.38,-424.68 2058.12,-415.84 2058.39,-407.51"/>
<polygon fill="black" stroke="black" points="2061.87,-407.99 2059.02,-397.79 2054.88,-407.54 2061.87,-407.99"/>
</g>
<!-- root_&#45;1&#45;&gt;Interpret_0 -->
<g id="edge70" class="edge">
<title>root_&#45;1&#45;&gt;Interpret_0</title>
<path fill="none" stroke="black" d="M2070.91,-432.05C2071.7,-424.68 2071.95,-415.84 2071.68,-407.51"/>
<polygon fill="black" stroke="black" points="2075.19,-407.54 2071.05,-397.79 2068.21,-407.99 2075.19,-407.54"/>
</g>
<!-- GenerateCode_0 -->
<g id="node31" class="node">
<title>GenerateCode_0</title>
<ellipse fill="lightgreen" stroke="lightgreen" cx="1878.04" cy="-378" rx="72.85" ry="18"/>
<text text-anchor="middle" x="1878.04" y="-372.95" font-family="Times,serif" font-size="14.00">GenerateCode_0</text>
</g>
<!-- root_&#45;1&#45;&gt;GenerateCode_0 -->
<g id="edge66" class="edge">
<title>root_&#45;1&#45;&gt;GenerateCode_0</title>
<path fill="none" stroke="black" d="M2035.82,-438.06C2006.87,-427.23 1961.98,-410.42 1927.47,-397.5"/>
<polygon fill="black" stroke="black" points="1929.13,-394.39 1918.54,-394.16 1926.68,-400.95 1929.13,-394.39"/>
</g>
<!-- CheckSymbol_0 -->
<g id="node49" class="node">
<title>CheckSymbol_0</title>
<ellipse fill="lightblue" stroke="lightblue" cx="2394.04" cy="-378" rx="72.85" ry="18"/>
<text text-anchor="middle" x="2394.04" y="-372.95" font-family="Times,serif" font-size="14.00">CheckSymbol_0</text>
</g>
<!-- root_&#45;1&#45;&gt;CheckSymbol_0 -->
<g id="edge90" class="edge">
<title>root_&#45;1&#45;&gt;CheckSymbol_0</title>
<path fill="none" stroke="black" d="M2099.31,-441.71C2153.49,-430.18 2259.83,-407.56 2328.86,-392.87"/>
<polygon fill="black" stroke="black" points="2329.49,-396.31 2338.55,-390.81 2328.04,-389.46 2329.49,-396.31"/>
</g>
<!-- GetValue_0 -->
<g id="node50" class="node">
<title>GetValue_0</title>
<ellipse fill="lightblue" stroke="lightblue" cx="2539.04" cy="-378" rx="54.42" ry="18"/>
<text text-anchor="middle" x="2539.04" y="-372.95" font-family="Times,serif" font-size="14.00">GetValue_0</text>
</g>
<!-- root_&#45;1&#45;&gt;GetValue_0 -->
<g id="edge91" class="edge">
<title>root_&#45;1&#45;&gt;GetValue_0</title>
<path fill="none" stroke="black" d="M2102.43,-445.89C2174.97,-439.47 2339.66,-423.06 2476.04,-396 2480.05,-395.2 2484.19,-394.29 2488.33,-393.32"/>
<polygon fill="black" stroke="black" points="2488.9,-396.78 2497.77,-390.98 2487.22,-389.99 2488.9,-396.78"/>
</g>
<!-- GetNextToken_1 -->
<g id="node3" class="node">
<title>GetNextToken_1</title>
<ellipse fill="lightgreen" stroke="lightgreen" cx="422.04" cy="-306" rx="74.38" ry="18"/>
<text text-anchor="middle" x="422.04" y="-300.95" font-family="Times,serif" font-size="14.00">GetNextToken_1</text>
</g>
<!-- Parse_0&#45;&gt;GetNextToken_1 -->
<g id="edge2" class="edge">
<title>Parse_0&#45;&gt;GetNextToken_1</title>
<path fill="none" stroke="black" d="M654.8,-368.97C609.97,-357.91 532.24,-337.72 478.98,-323.39"/>
<polygon fill="black" stroke="black" points="480.04,-320.05 469.47,-320.83 478.22,-326.81 480.04,-320.05"/>
</g>
<!-- Parse_0&#45;&gt;GetNextToken_1 -->
<g id="edge44" class="edge">
<title>Parse_0&#45;&gt;GetNextToken_1</title>
<path fill="none" stroke="black" d="M657.35,-367.19C614.56,-355.44 538.92,-335.61 484.89,-321.94"/>
<polygon fill="black" stroke="black" points="486.07,-318.63 475.52,-319.58 484.36,-325.42 486.07,-318.63"/>
</g>
<!-- ParseFunction_1 -->
<g id="node4" class="node">
<title>ParseFunction_1</title>
<ellipse fill="lightyellow" stroke="lightyellow" cx="782.04" cy="-306" rx="72.85" ry="18"/>
<text text-anchor="middle" x="782.04" y="-300.95" font-family="Times,serif" font-size="14.00">ParseFunction_1</text>
</g>
<!-- Parse_0&#45;&gt;ParseFunction_1 -->
<g id="edge3" class="edge">
<title>Parse_0&#45;&gt;ParseFunction_1</title>
<path fill="none" stroke="black" d="M709.55,-362.15C721.63,-352.96 737.42,-340.95 751.17,-330.48"/>
<polygon fill="black" stroke="black" points="753.26,-333.3 759.09,-324.46 749.02,-327.73 753.26,-333.3"/>
</g>
<!-- ParseDeclaration_1 -->
<g id="node26" class="node">
<title>ParseDeclaration_1</title>
<ellipse fill="lightyellow" stroke="lightyellow" cx="597.04" cy="-306" rx="83.08" ry="18"/>
<text text-anchor="middle" x="597.04" y="-300.95" font-family="Times,serif" font-size="14.00">ParseDeclaration_1</text>
</g>
<!-- Parse_0&#45;&gt;ParseDeclaration_1 -->
<g id="edge45" class="edge">
<title>Parse_0&#45;&gt;ParseDeclaration_1</title>
<path fill="none" stroke="black" d="M670.31,-362.15C658.18,-353.02 642.37,-341.12 628.53,-330.71"/>
<polygon fill="black" stroke="black" points="630.65,-327.92 620.55,-324.7 626.44,-333.51 630.65,-327.92"/>
</g>
<!-- CheckTokenizer_2 -->
<g id="node5" class="node">
<title>CheckTokenizer_2</title>
<ellipse fill="lightyellow" stroke="lightyellow" cx="424.04" cy="-234" rx="80.52" ry="18"/>
<text text-anchor="middle" x="424.04" y="-228.95" font-family="Times,serif" font-size="14.00">CheckTokenizer_2</text>
</g>
<!-- ParseFunction_1&#45;&gt;CheckTokenizer_2 -->
<g id="edge4" class="edge">
<title>ParseFunction_1&#45;&gt;CheckTokenizer_2</title>
<path fill="none" stroke="black" d="M724.26,-294.67C660.74,-282.67 558.94,-262.81 491.74,-249.33"/>
<polygon fill="black" stroke="black" points="492.83,-245.98 482.33,-247.44 491.45,-252.84 492.83,-245.98"/>
</g>
<!-- ParseFunction_1&#45;&gt;CheckTokenizer_2 -->
<g id="edge32" class="edge">
<title>ParseFunction_1&#45;&gt;CheckTokenizer_2</title>
<path fill="none" stroke="black" d="M728.47,-293.52C666.81,-281.06 565.37,-261.21 496.66,-248.14"/>
<polygon fill="black" stroke="black" points="497.46,-244.73 486.99,-246.31 496.16,-251.61 497.46,-244.73"/>
</g>
<!-- GetNextToken_2 -->
<g id="node6" class="node">
<title>GetNextToken_2</title>
<ellipse fill="lightyellow" stroke="lightyellow" cx="597.04" cy="-234" rx="74.38" ry="18"/>
<text text-anchor="middle" x="597.04" y="-228.95" font-family="Times,serif" font-size="14.00">GetNextToken_2</text>
</g>
<!-- ParseFunction_1&#45;&gt;GetNextToken_2 -->
<g id="edge5" class="edge">
<title>ParseFunction_1&#45;&gt;GetNextToken_2</title>
<path fill="none" stroke="black" d="M739.52,-291C710.41,-280.52 671.97,-266.05 642.3,-254.44"/>
<polygon fill="black" stroke="black" points="643.8,-251.27 633.21,-250.86 641.23,-257.78 643.8,-251.27"/>
</g>
<!-- ParseFunction_1&#45;&gt;GetNextToken_2 -->
<g id="edge33" class="edge">
<title>ParseFunction_1&#45;&gt;GetNextToken_2</title>
<path fill="none" stroke="black" d="M747.57,-289.81C720.28,-278.98 681.8,-264.39 650.53,-252.98"/>
<polygon fill="black" stroke="black" points="651.82,-249.72 641.23,-249.6 649.44,-256.3 651.82,-249.72"/>
</g>
<!-- ParseArgumentList_2 -->
<g id="node7" class="node">
<title>ParseArgumentList_2</title>
<ellipse fill="lightpink" stroke="lightpink" cx="1171.04" cy="-234" rx="92.3" ry="18"/>
<text text-anchor="middle" x="1171.04" y="-228.95" font-family="Times,serif" font-size="14.00">ParseArgumentList_2</text>
</g>
<!-- ParseFunction_1&#45;&gt;ParseArgumentList_2 -->
<g id="edge6" class="edge">
<title>ParseFunction_1&#45;&gt;ParseArgumentList_2</title>
<path fill="none" stroke="black" d="M839.43,-294.67C906.78,-282.55 1018.73,-262.41 1093.69,-248.92"/>
<polygon fill="black" stroke="black" points="1094.22,-252.38 1103.44,-247.16 1092.98,-245.49 1094.22,-252.38"/>
</g>
<!-- ParseFunctionBody_2 -->
<g id="node12" class="node">
<title>ParseFunctionBody_2</title>
<ellipse fill="lightpink" stroke="lightpink" cx="782.04" cy="-234" rx="92.81" ry="18"/>
<text text-anchor="middle" x="782.04" y="-228.95" font-family="Times,serif" font-size="14.00">ParseFunctionBody_2</text>
</g>
<!-- ParseFunction_1&#45;&gt;ParseFunctionBody_2 -->
<g id="edge15" class="edge">
<title>ParseFunction_1&#45;&gt;ParseFunctionBody_2</title>
<path fill="none" stroke="black" d="M782.04,-287.7C782.04,-280.41 782.04,-271.73 782.04,-263.54"/>
<polygon fill="black" stroke="black" points="785.54,-263.62 782.04,-253.62 778.54,-263.62 785.54,-263.62"/>
</g>
<!-- ParseReturnStatement_2 -->
<g id="node13" class="node">
<title>ParseReturnStatement_2</title>
<ellipse fill="lightpink" stroke="lightpink" cx="1555.04" cy="-234" rx="102.53" ry="18"/>
<text text-anchor="middle" x="1555.04" y="-228.95" font-family="Times,serif" font-size="14.00">ParseReturnStatement_2</text>
</g>
<!-- ParseFunction_1&#45;&gt;ParseReturnStatement_2 -->
<g id="edge20" class="edge">
<title>ParseFunction_1&#45;&gt;ParseReturnStatement_2</title>
<path fill="none" stroke="black" d="M852.26,-301.05C973.32,-293.86 1229.02,-277.04 1444.04,-252 1452.68,-250.99 1461.69,-249.82 1470.67,-248.57"/>
<polygon fill="black" stroke="black" points="1471.09,-252.05 1480.5,-247.17 1470.1,-245.12 1471.09,-252.05"/>
</g>
<!-- GenerateCode_2 -->
<g id="node18" class="node">
<title>GenerateCode_2</title>
<ellipse fill="lightyellow" stroke="lightyellow" cx="1907.04" cy="-234" rx="72.85" ry="18"/>
<text text-anchor="middle" x="1907.04" y="-228.95" font-family="Times,serif" font-size="14.00">GenerateCode_2</text>
</g>
<!-- ParseFunction_1&#45;&gt;GenerateCode_2 -->
<g id="edge34" class="edge">
<title>ParseFunction_1&#45;&gt;GenerateCode_2</title>
<path fill="none" stroke="black" d="M855.09,-305.14C1025.65,-304.61 1463.12,-298.43 1825.04,-252 1831.32,-251.19 1837.84,-250.17 1844.33,-249.03"/>
<polygon fill="black" stroke="black" points="1844.51,-252.55 1853.7,-247.28 1843.23,-245.67 1844.51,-252.55"/>
</g>
<!-- do_register_alloc_2 -->
<g id="node22" class="node">
<title>do_register_alloc_2</title>
<ellipse fill="lightyellow" stroke="lightyellow" cx="977.04" cy="-234" rx="84.11" ry="18"/>
<text text-anchor="middle" x="977.04" y="-228.95" font-family="Times,serif" font-size="14.00">do_register_alloc_2</text>
</g>
<!-- ParseFunction_1&#45;&gt;do_register_alloc_2 -->
<g id="edge39" class="edge">
<title>ParseFunction_1&#45;&gt;do_register_alloc_2</title>
<path fill="none" stroke="black" d="M821.97,-290.67C851.6,-280.03 892.29,-265.42 924.55,-253.84"/>
<polygon fill="black" stroke="black" points="925.48,-257.23 933.71,-250.55 923.12,-250.64 925.48,-257.23"/>
</g>
<!-- InsertPrototype_2 -->
<g id="node23" class="node">
<title>InsertPrototype_2</title>
<ellipse fill="lightyellow" stroke="lightyellow" cx="1358.04" cy="-234" rx="76.94" ry="18"/>
<text text-anchor="middle" x="1358.04" y="-228.95" font-family="Times,serif" font-size="14.00">InsertPrototype_2</text>
</g>
<!-- ParseFunction_1&#45;&gt;InsertPrototype_2 -->
<g id="edge40" class="edge">
<title>ParseFunction_1&#45;&gt;InsertPrototype_2</title>
<path fill="none" stroke="black" d="M850.45,-299.5C945.39,-291.44 1122.32,-274.85 1272.04,-252 1278.3,-251.04 1284.8,-249.95 1291.3,-248.79"/>
<polygon fill="black" stroke="black" points="1291.5,-252.31 1300.7,-247.05 1290.23,-245.42 1291.5,-252.31"/>
</g>
<!-- CheckTokenizer_3 -->
<g id="node8" class="node">
<title>CheckTokenizer_3</title>
<ellipse fill="lightpink" stroke="lightpink" cx="782.04" cy="-162" rx="80.52" ry="18"/>
<text text-anchor="middle" x="782.04" y="-156.95" font-family="Times,serif" font-size="14.00">CheckTokenizer_3</text>
</g>
<!-- ParseArgumentList_2&#45;&gt;CheckTokenizer_3 -->
<g id="edge7" class="edge">
<title>ParseArgumentList_2&#45;&gt;CheckTokenizer_3</title>
<path fill="none" stroke="black" d="M1097.83,-222.64C1033.06,-212.1 937.01,-195.19 854.04,-180 850.88,-179.42 847.67,-178.83 844.43,-178.23"/>
<polygon fill="black" stroke="black" points="845.35,-174.84 834.88,-176.44 844.06,-181.72 845.35,-174.84"/>
</g>
<!-- ParseArgumentList_2&#45;&gt;CheckTokenizer_3 -->
<g id="edge9" class="edge">
<title>ParseArgumentList_2&#45;&gt;CheckTokenizer_3</title>
<path fill="none" stroke="black" d="M1103.9,-221.32C1043.28,-210.72 951.64,-194.57 872.04,-180 865.72,-178.84 859.16,-177.63 852.59,-176.41"/>
<polygon fill="black" stroke="black" points="853.53,-173.02 843.05,-174.62 852.24,-179.9 853.53,-173.02"/>
</g>
<!-- ParseArgumentList_2&#45;&gt;CheckTokenizer_3 -->
<g id="edge13" class="edge">
<title>ParseArgumentList_2&#45;&gt;CheckTokenizer_3</title>
<path fill="none" stroke="black" d="M1110.92,-220C1053.84,-209.41 966.4,-193.98 890.04,-180 880.27,-178.21 869.92,-176.29 859.58,-174.39"/>
<polygon fill="black" stroke="black" points="860.36,-170.98 849.89,-172.63 859.11,-177.87 860.36,-170.98"/>
</g>
<!-- GetNextToken_3 -->
<g id="node9" class="node">
<title>GetNextToken_3</title>
<ellipse fill="lightpink" stroke="lightpink" cx="955.04" cy="-162" rx="74.38" ry="18"/>
<text text-anchor="middle" x="955.04" y="-156.95" font-family="Times,serif" font-size="14.00">GetNextToken_3</text>
</g>
<!-- ParseArgumentList_2&#45;&gt;GetNextToken_3 -->
<g id="edge8" class="edge">
<title>ParseArgumentList_2&#45;&gt;GetNextToken_3</title>
<path fill="none" stroke="black" d="M1116.79,-219C1081.06,-208.35 1035.1,-193.57 1001.12,-181.87"/>
<polygon fill="black" stroke="black" points="1002.56,-178.66 991.97,-178.68 1000.26,-185.28 1002.56,-178.66"/>
</g>
<!-- ParseArgumentList_2&#45;&gt;GetNextToken_3 -->
<g id="edge10" class="edge">
<title>ParseArgumentList_2&#45;&gt;GetNextToken_3</title>
<path fill="none" stroke="black" d="M1124.7,-217.98C1090.77,-206.99 1044.64,-192.04 1009.04,-180.5"/>
<polygon fill="black" stroke="black" points="1010.39,-177.26 999.8,-177.51 1008.23,-183.92 1010.39,-177.26"/>
</g>
<!-- ParseArgumentList_2&#45;&gt;GetNextToken_3 -->
<g id="edge14" class="edge">
<title>ParseArgumentList_2&#45;&gt;GetNextToken_3</title>
<path fill="none" stroke="black" d="M1133.54,-217.12C1100.95,-205.7 1053.64,-190.36 1015.74,-178.94"/>
<polygon fill="black" stroke="black" points="1016.85,-175.61 1006.27,-176.11 1014.85,-182.32 1016.85,-175.61"/>
</g>
<!-- CheckSymbol_3 -->
<g id="node10" class="node">
<title>CheckSymbol_3</title>
<ellipse fill="lightpink" stroke="lightpink" cx="1120.04" cy="-162" rx="72.85" ry="18"/>
<text text-anchor="middle" x="1120.04" y="-156.95" font-family="Times,serif" font-size="14.00">CheckSymbol_3</text>
</g>
<!-- ParseArgumentList_2&#45;&gt;CheckSymbol_3 -->
<g id="edge11" class="edge">
<title>ParseArgumentList_2&#45;&gt;CheckSymbol_3</title>
<path fill="none" stroke="black" d="M1158.43,-215.7C1152.62,-207.73 1145.61,-198.1 1139.17,-189.26"/>
<polygon fill="black" stroke="black" points="1142.11,-187.35 1133.39,-181.33 1136.45,-191.47 1142.11,-187.35"/>
</g>
<!-- InsertSymbol_3 -->
<g id="node11" class="node">
<title>InsertSymbol_3</title>
<ellipse fill="lightpink" stroke="lightpink" cx="1281.04" cy="-162" rx="70.29" ry="18"/>
<text text-anchor="middle" x="1281.04" y="-156.95" font-family="Times,serif" font-size="14.00">InsertSymbol_3</text>
</g>
<!-- ParseArgumentList_2&#45;&gt;InsertSymbol_3 -->
<g id="edge12" class="edge">
<title>ParseArgumentList_2&#45;&gt;InsertSymbol_3</title>
<path fill="none" stroke="black" d="M1197.1,-216.41C1211.73,-207.1 1230.17,-195.37 1246.04,-185.27"/>
<polygon fill="black" stroke="black" points="1247.7,-188.36 1254.26,-180.04 1243.94,-182.46 1247.7,-188.36"/>
</g>
<!-- ParseFunctionBody_2&#45;&gt;CheckTokenizer_3 -->
<g id="edge16" class="edge">
<title>ParseFunctionBody_2&#45;&gt;CheckTokenizer_3</title>
<path fill="none" stroke="black" d="M776.12,-215.7C775.37,-208.41 775.12,-199.73 775.39,-191.54"/>
<polygon fill="black" stroke="black" points="778.88,-191.82 776.04,-181.61 771.89,-191.36 778.88,-191.82"/>
</g>
<!-- ParseFunctionBody_2&#45;&gt;CheckTokenizer_3 -->
<g id="edge18" class="edge">
<title>ParseFunctionBody_2&#45;&gt;CheckTokenizer_3</title>
<path fill="none" stroke="black" d="M787.95,-215.7C788.7,-208.41 788.95,-199.73 788.68,-191.54"/>
<polygon fill="black" stroke="black" points="792.18,-191.36 788.03,-181.61 785.19,-191.82 792.18,-191.36"/>
</g>
<!-- ParseFunctionBody_2&#45;&gt;GetNextToken_3 -->
<g id="edge17" class="edge">
<title>ParseFunctionBody_2&#45;&gt;GetNextToken_3</title>
<path fill="none" stroke="black" d="M815.95,-216.94C840.92,-206.35 875.21,-192.44 903.54,-181.4"/>
<polygon fill="black" stroke="black" points="904.6,-184.74 912.66,-177.87 902.07,-178.21 904.6,-184.74"/>
</g>
<!-- ParseFunctionBody_2&#45;&gt;GetNextToken_3 -->
<g id="edge19" class="edge">
<title>ParseFunctionBody_2&#45;&gt;GetNextToken_3</title>
<path fill="none" stroke="black" d="M825.25,-217.81C851.74,-207.6 885.44,-194.03 911.9,-182.95"/>
<polygon fill="black" stroke="black" points="913.14,-186.22 921,-179.11 910.42,-179.77 913.14,-186.22"/>
</g>
<!-- ParseExpression_3 -->
<g id="node14" class="node">
<title>ParseExpression_3</title>
<ellipse fill="lightcoral" stroke="lightcoral" cx="1450.04" cy="-162" rx="81.04" ry="18"/>
<text text-anchor="middle" x="1450.04" y="-156.95" font-family="Times,serif" font-size="14.00">ParseExpression_3</text>
</g>
<!-- ParseReturnStatement_2&#45;&gt;ParseExpression_3 -->
<g id="edge21" class="edge">
<title>ParseReturnStatement_2&#45;&gt;ParseExpression_3</title>
<path fill="none" stroke="black" d="M1524.31,-216.41C1509.94,-207.48 1492.98,-196.3 1478.86,-186.49"/>
<polygon fill="black" stroke="black" points="1481.02,-183.73 1470.83,-180.83 1476.98,-189.45 1481.02,-183.73"/>
</g>
<!-- ParseReturnStatement_2&#45;&gt;ParseExpression_3 -->
<g id="edge27" class="edge">
<title>ParseReturnStatement_2&#45;&gt;ParseExpression_3</title>
<path fill="none" stroke="black" d="M1535.25,-215.88C1522.25,-206.56 1504.94,-194.93 1489.28,-184.95"/>
<polygon fill="black" stroke="black" points="1491.4,-182.15 1481.07,-179.79 1487.68,-188.08 1491.4,-182.15"/>
</g>
<!-- CheckTokenizer_4 -->
<g id="node15" class="node">
<title>CheckTokenizer_4</title>
<ellipse fill="lightcoral" stroke="lightcoral" cx="1151.04" cy="-90" rx="80.52" ry="18"/>
<text text-anchor="middle" x="1151.04" y="-84.95" font-family="Times,serif" font-size="14.00">CheckTokenizer_4</text>
</g>
<!-- ParseExpression_3&#45;&gt;CheckTokenizer_4 -->
<g id="edge22" class="edge">
<title>ParseExpression_3&#45;&gt;CheckTokenizer_4</title>
<path fill="none" stroke="black" d="M1388.13,-150.06C1334.47,-138.85 1258.46,-121.25 1206.7,-108.18"/>
<polygon fill="black" stroke="black" points="1207.74,-104.83 1197.18,-105.75 1206.01,-111.61 1207.74,-104.83"/>
</g>
<!-- ParseExpression_3&#45;&gt;CheckTokenizer_4 -->
<g id="edge25" class="edge">
<title>ParseExpression_3&#45;&gt;CheckTokenizer_4</title>
<path fill="none" stroke="black" d="M1393.04,-148.89C1341.61,-137.27 1266.23,-119.66 1213.26,-106.92"/>
<polygon fill="black" stroke="black" points="1214.33,-103.57 1203.78,-104.63 1212.68,-110.38 1214.33,-103.57"/>
</g>
<!-- ParseExpression_3&#45;&gt;CheckTokenizer_4 -->
<g id="edge28" class="edge">
<title>ParseExpression_3&#45;&gt;CheckTokenizer_4</title>
<path fill="none" stroke="black" d="M1398.53,-147.67C1348.86,-135.64 1273.53,-118 1218.99,-105.6"/>
<polygon fill="black" stroke="black" points="1220.03,-102.24 1209.5,-103.45 1218.48,-109.07 1220.03,-102.24"/>
</g>
<!-- ParseExpression_3&#45;&gt;CheckTokenizer_4 -->
<g id="edge30" class="edge">
<title>ParseExpression_3&#45;&gt;CheckTokenizer_4</title>
<path fill="none" stroke="black" d="M1405.19,-146.58C1356.89,-134.14 1280.63,-116.33 1223.87,-104.24"/>
<polygon fill="black" stroke="black" points="1224.78,-100.86 1214.27,-102.22 1223.34,-107.71 1224.78,-100.86"/>
</g>
<!-- GetNextToken_4 -->
<g id="node16" class="node">
<title>GetNextToken_4</title>
<ellipse fill="lightcoral" stroke="lightcoral" cx="723.04" cy="-90" rx="74.38" ry="18"/>
<text text-anchor="middle" x="723.04" y="-84.95" font-family="Times,serif" font-size="14.00">GetNextToken_4</text>
</g>
<!-- ParseExpression_3&#45;&gt;GetNextToken_4 -->
<g id="edge23" class="edge">
<title>ParseExpression_3&#45;&gt;GetNextToken_4</title>
<path fill="none" stroke="black" d="M1381.67,-151.96C1365.29,-149.08 1348.48,-146.1 1333.04,-144 1144.94,-118.48 923.81,-103.4 805.82,-96.2"/>
<polygon fill="black" stroke="black" points="806.09,-92.71 795.9,-95.6 805.67,-99.7 806.09,-92.71"/>
</g>
<!-- ParseExpression_3&#45;&gt;GetNextToken_4 -->
<g id="edge26" class="edge">
<title>ParseExpression_3&#45;&gt;GetNextToken_4</title>
<path fill="none" stroke="black" d="M1388.12,-150.01C1375.81,-147.78 1363.01,-145.62 1351.04,-144 1156.62,-117.62 926.92,-102.4 806.37,-95.51"/>
<polygon fill="black" stroke="black" points="806.74,-92.02 796.55,-94.95 806.34,-99.01 806.74,-92.02"/>
</g>
<!-- ParseExpression_3&#45;&gt;GetNextToken_4 -->
<g id="edge29" class="edge">
<title>ParseExpression_3&#45;&gt;GetNextToken_4</title>
<path fill="none" stroke="black" d="M1396.13,-148.28C1387.13,-146.68 1377.86,-145.2 1369.04,-144 1168.56,-116.8 930.57,-101.46 806.91,-94.89"/>
<polygon fill="black" stroke="black" points="807.35,-91.4 797.18,-94.37 806.98,-98.39 807.35,-91.4"/>
</g>
<!-- ParseExpression_3&#45;&gt;GetNextToken_4 -->
<g id="edge31" class="edge">
<title>ParseExpression_3&#45;&gt;GetNextToken_4</title>
<path fill="none" stroke="black" d="M1404.85,-146.7C1398.89,-145.71 1392.87,-144.79 1387.04,-144 1180.75,-116.01 934.75,-100.58 807.38,-94.34"/>
<polygon fill="black" stroke="black" points="807.84,-90.85 797.68,-93.87 807.5,-97.85 807.84,-90.85"/>
</g>
<!-- CheckSymbol_4 -->
<g id="node17" class="node">
<title>CheckSymbol_4</title>
<ellipse fill="lightcoral" stroke="lightcoral" cx="1450.04" cy="-90" rx="72.85" ry="18"/>
<text text-anchor="middle" x="1450.04" y="-84.95" font-family="Times,serif" font-size="14.00">CheckSymbol_4</text>
</g>
<!-- ParseExpression_3&#45;&gt;CheckSymbol_4 -->
<g id="edge24" class="edge">
<title>ParseExpression_3&#45;&gt;CheckSymbol_4</title>
<path fill="none" stroke="black" d="M1450.04,-143.7C1450.04,-136.41 1450.04,-127.73 1450.04,-119.54"/>
<polygon fill="black" stroke="black" points="1453.54,-119.62 1450.04,-109.62 1446.54,-119.62 1453.54,-119.62"/>
</g>
<!-- GenerateCode_3 -->
<g id="node19" class="node">
<title>GenerateCode_3</title>
<ellipse fill="lightcoral" stroke="lightcoral" cx="1731.04" cy="-162" rx="72.85" ry="18"/>
<text text-anchor="middle" x="1731.04" y="-156.95" font-family="Times,serif" font-size="14.00">GenerateCode_3</text>
</g>
<!-- GenerateCode_2&#45;&gt;GenerateCode_3 -->
<g id="edge35" class="edge">
<title>GenerateCode_2&#45;&gt;GenerateCode_3</title>
<path fill="none" stroke="black" d="M1869.71,-218.15C1843.23,-207.62 1807.45,-193.39 1778.87,-182.03"/>
<polygon fill="black" stroke="black" points="1780.3,-178.83 1769.71,-178.38 1777.71,-185.33 1780.3,-178.83"/>
</g>
<!-- GenerateCode_4 -->
<g id="node20" class="node">
<title>GenerateCode_4</title>
<ellipse fill="lightcyan" stroke="lightcyan" cx="1731.04" cy="-90" rx="72.85" ry="18"/>
<text text-anchor="middle" x="1731.04" y="-84.95" font-family="Times,serif" font-size="14.00">GenerateCode_4</text>
</g>
<!-- GenerateCode_3&#45;&gt;GenerateCode_4 -->
<g id="edge36" class="edge">
<title>GenerateCode_3&#45;&gt;GenerateCode_4</title>
<path fill="none" stroke="black" d="M1731.04,-143.7C1731.04,-136.41 1731.04,-127.73 1731.04,-119.54"/>
<polygon fill="black" stroke="black" points="1734.54,-119.62 1731.04,-109.62 1727.54,-119.62 1734.54,-119.62"/>
</g>
<!-- GenerateCode_5 -->
<g id="node21" class="node">
<title>GenerateCode_5</title>
<ellipse fill="lightcyan" stroke="lightcyan" cx="1731.04" cy="-18" rx="72.85" ry="18"/>
<text text-anchor="middle" x="1731.04" y="-12.95" font-family="Times,serif" font-size="14.00">GenerateCode_5</text>
</g>
<!-- GenerateCode_4&#45;&gt;GenerateCode_5 -->
<g id="edge37" class="edge">
<title>GenerateCode_4&#45;&gt;GenerateCode_5</title>
<path fill="none" stroke="black" d="M1725.12,-71.7C1724.37,-64.41 1724.12,-55.73 1724.39,-47.54"/>
<polygon fill="black" stroke="black" points="1727.88,-47.82 1725.04,-37.61 1720.89,-47.36 1727.88,-47.82"/>
</g>
<!-- GenerateCode_4&#45;&gt;GenerateCode_5 -->
<g id="edge38" class="edge">
<title>GenerateCode_4&#45;&gt;GenerateCode_5</title>
<path fill="none" stroke="black" d="M1736.95,-71.7C1737.7,-64.41 1737.95,-55.73 1737.68,-47.54"/>
<polygon fill="black" stroke="black" points="1741.18,-47.36 1737.03,-37.61 1734.19,-47.82 1741.18,-47.36"/>
</g>
<!-- Loadi_1 -->
<g id="node33" class="node">
<title>Loadi_1</title>
<ellipse fill="lightgreen" stroke="lightgreen" cx="2354.04" cy="-306" rx="41.63" ry="18"/>
<text text-anchor="middle" x="2354.04" y="-300.95" font-family="Times,serif" font-size="14.00">Loadi_1</text>
</g>
<!-- Interpret_0&#45;&gt;Loadi_1 -->
<g id="edge71" class="edge">
<title>Interpret_0&#45;&gt;Loadi_1</title>
<path fill="none" stroke="black" d="M2103.98,-365.7C2111.28,-363.7 2118.87,-361.72 2126.04,-360 2204.52,-341.15 2226.11,-345.03 2304.04,-324 2306.61,-323.3 2309.25,-322.55 2311.9,-321.75"/>
<polygon fill="black" stroke="black" points="2312.83,-325.13 2321.31,-318.78 2310.72,-318.45 2312.83,-325.13"/>
</g>
<!-- Store_1 -->
<g id="node34" class="node">
<title>Store_1</title>
<ellipse fill="lightyellow" stroke="lightyellow" cx="2255.04" cy="-306" rx="39.58" ry="18"/>
<text text-anchor="middle" x="2255.04" y="-300.95" font-family="Times,serif" font-size="14.00">Store_1</text>
</g>
<!-- Interpret_0&#45;&gt;Store_1 -->
<g id="edge72" class="edge">
<title>Interpret_0&#45;&gt;Store_1</title>
<path fill="none" stroke="black" d="M2096.64,-363.34C2128.42,-351.01 2177.4,-332.96 2212.55,-320.64"/>
<polygon fill="black" stroke="black" points="2213.25,-324.1 2221.55,-317.51 2210.95,-317.49 2213.25,-324.1"/>
</g>
<!-- Interpret_0&#45;&gt;Store_1 -->
<g id="edge88" class="edge">
<title>Interpret_0&#45;&gt;Store_1</title>
<path fill="none" stroke="black" d="M2102.48,-365.13C2135.51,-353.63 2183.25,-336.11 2216.57,-323.31"/>
<polygon fill="black" stroke="black" points="2217.8,-326.59 2225.86,-319.71 2215.27,-320.06 2217.8,-326.59"/>
</g>
<!-- Rmov_1 -->
<g id="node36" class="node">
<title>Rmov_1</title>
<ellipse fill="lightgreen" stroke="lightgreen" cx="1968.04" cy="-306" rx="43.16" ry="18"/>
<text text-anchor="middle" x="1968.04" y="-300.95" font-family="Times,serif" font-size="14.00">Rmov_1</text>
</g>
<!-- Interpret_0&#45;&gt;Rmov_1 -->
<g id="edge74" class="edge">
<title>Interpret_0&#45;&gt;Rmov_1</title>
<path fill="none" stroke="black" d="M2043.51,-361.46C2030.14,-351.82 2012.76,-339.28 1998.05,-328.66"/>
<polygon fill="black" stroke="black" points="2000.22,-325.91 1990.07,-322.9 1996.13,-331.59 2000.22,-325.91"/>
</g>
<!-- Call_1 -->
<g id="node37" class="node">
<title>Call_1</title>
<ellipse fill="lightyellow" stroke="lightyellow" cx="2065.04" cy="-306" rx="35.49" ry="18"/>
<text text-anchor="middle" x="2065.04" y="-300.95" font-family="Times,serif" font-size="14.00">Call_1</text>
</g>
<!-- Interpret_0&#45;&gt;Call_1 -->
<g id="edge75" class="edge">
<title>Interpret_0&#45;&gt;Call_1</title>
<path fill="none" stroke="black" d="M2065.04,-359.7C2065.04,-352.41 2065.04,-343.73 2065.04,-335.54"/>
<polygon fill="black" stroke="black" points="2068.54,-335.62 2065.04,-325.62 2061.54,-335.62 2068.54,-335.62"/>
</g>
<!-- Load_1 -->
<g id="node47" class="node">
<title>Load_1</title>
<ellipse fill="lightyellow" stroke="lightyellow" cx="2158.04" cy="-306" rx="39.07" ry="18"/>
<text text-anchor="middle" x="2158.04" y="-300.95" font-family="Times,serif" font-size="14.00">Load_1</text>
</g>
<!-- Interpret_0&#45;&gt;Load_1 -->
<g id="edge86" class="edge">
<title>Interpret_0&#45;&gt;Load_1</title>
<path fill="none" stroke="black" d="M2086.14,-361.12C2098.85,-351.55 2115.22,-339.23 2129.13,-328.76"/>
<polygon fill="black" stroke="black" points="2131.19,-331.58 2137.08,-322.77 2126.98,-325.99 2131.19,-331.58"/>
</g>
<!-- ParseDeclaration_1&#45;&gt;CheckTokenizer_2 -->
<g id="edge46" class="edge">
<title>ParseDeclaration_1&#45;&gt;CheckTokenizer_2</title>
<path fill="none" stroke="black" d="M554.71,-290.15C528.33,-280 494.55,-266.4 467.9,-255.25"/>
<polygon fill="black" stroke="black" points="469.3,-252.04 458.72,-251.38 466.58,-258.49 469.3,-252.04"/>
</g>
<!-- ParseDeclaration_1&#45;&gt;CheckTokenizer_2 -->
<g id="edge48" class="edge">
<title>ParseDeclaration_1&#45;&gt;CheckTokenizer_2</title>
<path fill="none" stroke="black" d="M563.54,-289.12C538.85,-278.64 504.9,-264.86 476.63,-253.83"/>
<polygon fill="black" stroke="black" points="478.1,-250.64 467.51,-250.29 475.57,-257.17 478.1,-250.64"/>
</g>
<!-- ParseDeclaration_1&#45;&gt;GetNextToken_2 -->
<g id="edge47" class="edge">
<title>ParseDeclaration_1&#45;&gt;GetNextToken_2</title>
<path fill="none" stroke="black" d="M591.12,-287.7C590.37,-280.41 590.12,-271.73 590.39,-263.54"/>
<polygon fill="black" stroke="black" points="593.88,-263.82 591.04,-253.61 586.89,-263.36 593.88,-263.82"/>
</g>
<!-- ParseDeclaration_1&#45;&gt;GetNextToken_2 -->
<g id="edge49" class="edge">
<title>ParseDeclaration_1&#45;&gt;GetNextToken_2</title>
<path fill="none" stroke="black" d="M602.95,-287.7C603.7,-280.41 603.95,-271.73 603.68,-263.54"/>
<polygon fill="black" stroke="black" points="607.18,-263.36 603.03,-253.61 600.19,-263.82 607.18,-263.36"/>
</g>
<!-- ParseExpression_2 -->
<g id="node27" class="node">
<title>ParseExpression_2</title>
<ellipse fill="lightpink" stroke="lightpink" cx="81.04" cy="-234" rx="81.04" ry="18"/>
<text text-anchor="middle" x="81.04" y="-228.95" font-family="Times,serif" font-size="14.00">ParseExpression_2</text>
</g>
<!-- ParseDeclaration_1&#45;&gt;ParseExpression_2 -->
<g id="edge50" class="edge">
<title>ParseDeclaration_1&#45;&gt;ParseExpression_2</title>
<path fill="none" stroke="black" d="M536.77,-293.19C526.22,-291.32 515.32,-289.5 505.04,-288 357.3,-266.42 318.73,-273.87 171.04,-252 164.33,-251.01 157.35,-249.87 150.39,-248.67"/>
<polygon fill="black" stroke="black" points="151.45,-245.3 140.99,-247 150.23,-252.2 151.45,-245.3"/>
</g>
<!-- CheckSymbol_2 -->
<g id="node29" class="node">
<title>CheckSymbol_2</title>
<ellipse fill="lightyellow" stroke="lightyellow" cx="253.04" cy="-234" rx="72.85" ry="18"/>
<text text-anchor="middle" x="253.04" y="-228.95" font-family="Times,serif" font-size="14.00">CheckSymbol_2</text>
</g>
<!-- ParseDeclaration_1&#45;&gt;CheckSymbol_2 -->
<g id="edge64" class="edge">
<title>ParseDeclaration_1&#45;&gt;CheckSymbol_2</title>
<path fill="none" stroke="black" d="M537.21,-293.09C483.88,-282.43 403.72,-266.33 334.04,-252 328.86,-250.93 323.49,-249.82 318.1,-248.7"/>
<polygon fill="black" stroke="black" points="319.04,-245.32 308.53,-246.71 317.61,-252.18 319.04,-245.32"/>
</g>
<!-- InsertSymbol_2 -->
<g id="node30" class="node">
<title>InsertSymbol_2</title>
<ellipse fill="lightyellow" stroke="lightyellow" cx="1746.04" cy="-234" rx="70.29" ry="18"/>
<text text-anchor="middle" x="1746.04" y="-228.95" font-family="Times,serif" font-size="14.00">InsertSymbol_2</text>
</g>
<!-- ParseDeclaration_1&#45;&gt;InsertSymbol_2 -->
<g id="edge65" class="edge">
<title>ParseDeclaration_1&#45;&gt;InsertSymbol_2</title>
<path fill="none" stroke="black" d="M658.69,-293.52C672.26,-291.36 686.6,-289.35 700.04,-288 1127.95,-244.9 1240.29,-305.44 1667.04,-252 1673.04,-251.25 1679.26,-250.27 1685.46,-249.16"/>
<polygon fill="black" stroke="black" points="1685.89,-252.64 1695.05,-247.32 1684.57,-245.76 1685.89,-252.64"/>
</g>
<!-- ParseExpression_2&#45;&gt;CheckTokenizer_3 -->
<g id="edge51" class="edge">
<title>ParseExpression_2&#45;&gt;CheckTokenizer_3</title>
<path fill="none" stroke="black" d="M134.92,-220.16C143.93,-218.59 153.2,-217.14 162.04,-216 392.25,-186.41 452.82,-209.59 683.04,-180 691.58,-178.9 700.53,-177.51 709.42,-175.99"/>
<polygon fill="black" stroke="black" points="709.89,-179.46 719.13,-174.28 708.68,-172.57 709.89,-179.46"/>
</g>
<!-- ParseExpression_2&#45;&gt;CheckTokenizer_3 -->
<g id="edge62" class="edge">
<title>ParseExpression_2&#45;&gt;CheckTokenizer_3</title>
<path fill="none" stroke="black" d="M142.45,-221.98C154.91,-219.72 167.89,-217.56 180.04,-216 410.25,-186.41 470.82,-209.59 701.04,-180 706.37,-179.31 711.87,-178.51 717.38,-177.64"/>
<polygon fill="black" stroke="black" points="717.85,-181.11 727.14,-176 716.7,-174.2 717.85,-181.11"/>
</g>
<!-- ParseExpression_2&#45;&gt;GetNextToken_3 -->
<g id="edge52" class="edge">
<title>ParseExpression_2&#45;&gt;GetNextToken_3</title>
<path fill="none" stroke="black" d="M134.42,-220.1C143.58,-218.52 153.04,-217.08 162.04,-216 471.8,-178.96 553.57,-219.41 863.04,-180 870.96,-178.99 879.26,-177.64 887.5,-176.15"/>
<polygon fill="black" stroke="black" points="888,-179.62 897.18,-174.32 886.7,-172.74 888,-179.62"/>
</g>
<!-- ParseExpression_2&#45;&gt;GetNextToken_3 -->
<g id="edge63" class="edge">
<title>ParseExpression_2&#45;&gt;GetNextToken_3</title>
<path fill="none" stroke="black" d="M141.95,-221.91C154.56,-219.63 167.72,-217.47 180.04,-216 489.8,-178.96 571.57,-219.41 881.04,-180 885.71,-179.4 890.52,-178.69 895.34,-177.9"/>
<polygon fill="black" stroke="black" points="895.79,-181.37 905.04,-176.19 894.58,-174.48 895.79,-181.37"/>
</g>
<!-- ParseFunctionCall_3 -->
<g id="node28" class="node">
<title>ParseFunctionCall_3</title>
<ellipse fill="lightcoral" stroke="lightcoral" cx="595.04" cy="-162" rx="88.2" ry="18"/>
<text text-anchor="middle" x="595.04" y="-156.95" font-family="Times,serif" font-size="14.00">ParseFunctionCall_3</text>
</g>
<!-- ParseExpression_2&#45;&gt;ParseFunctionCall_3 -->
<g id="edge53" class="edge">
<title>ParseExpression_2&#45;&gt;ParseFunctionCall_3</title>
<path fill="none" stroke="black" d="M140.01,-221.32C150.33,-219.43 160.98,-217.58 171.04,-216 286.77,-197.85 421.05,-181.93 506.96,-172.39"/>
<polygon fill="black" stroke="black" points="507.18,-175.89 516.73,-171.31 506.41,-168.93 507.18,-175.89"/>
</g>
<!-- ParseFunctionCall_3&#45;&gt;CheckTokenizer_4 -->
<g id="edge54" class="edge">
<title>ParseFunctionCall_3&#45;&gt;CheckTokenizer_4</title>
<path fill="none" stroke="black" d="M646.14,-146.92C652.47,-145.88 658.86,-144.9 665.04,-144 803.25,-123.93 965.77,-106.64 1064.1,-97.64"/>
<polygon fill="black" stroke="black" points="1064.32,-101.13 1073.96,-96.74 1063.69,-94.16 1064.32,-101.13"/>
</g>
<!-- ParseFunctionCall_3&#45;&gt;CheckTokenizer_4 -->
<g id="edge56" class="edge">
<title>ParseFunctionCall_3&#45;&gt;CheckTokenizer_4</title>
<path fill="none" stroke="black" d="M654.93,-148.43C664.3,-146.85 673.9,-145.33 683.04,-144 816.21,-124.66 971.94,-107.91 1066.02,-98.66"/>
<polygon fill="black" stroke="black" points="1066.34,-102.14 1075.96,-97.69 1065.66,-95.18 1066.34,-102.14"/>
</g>
<!-- ParseFunctionCall_3&#45;&gt;CheckTokenizer_4 -->
<g id="edge58" class="edge">
<title>ParseFunctionCall_3&#45;&gt;CheckTokenizer_4</title>
<path fill="none" stroke="black" d="M662.73,-150.11C675.49,-147.95 688.69,-145.79 701.04,-144 828.93,-125.43 977.64,-109.24 1068.07,-99.79"/>
<polygon fill="black" stroke="black" points="1068.26,-103.29 1077.84,-98.77 1067.53,-96.33 1068.26,-103.29"/>
</g>
<!-- ParseFunctionCall_3&#45;&gt;CheckTokenizer_4 -->
<g id="edge60" class="edge">
<title>ParseFunctionCall_3&#45;&gt;CheckTokenizer_4</title>
<path fill="none" stroke="black" d="M669.23,-151.92C686.01,-149.18 703.22,-146.3 719.04,-144 841.73,-126.18 983.59,-110.56 1070.8,-100.98"/>
<polygon fill="black" stroke="black" points="1071.14,-104.46 1080.7,-99.89 1070.38,-97.5 1071.14,-104.46"/>
</g>
<!-- ParseFunctionCall_3&#45;&gt;GetNextToken_4 -->
<g id="edge55" class="edge">
<title>ParseFunctionCall_3&#45;&gt;GetNextToken_4</title>
<path fill="none" stroke="black" d="M608.66,-143.88C624.22,-133.6 647.96,-120.52 670.18,-109.94"/>
<polygon fill="black" stroke="black" points="671.61,-113.14 679.21,-105.76 668.66,-106.79 671.61,-113.14"/>
</g>
<!-- ParseFunctionCall_3&#45;&gt;GetNextToken_4 -->
<g id="edge57" class="edge">
<title>ParseFunctionCall_3&#45;&gt;GetNextToken_4</title>
<path fill="none" stroke="black" d="M619.53,-144.41C636.46,-134.56 659.31,-122 679.28,-111.53"/>
<polygon fill="black" stroke="black" points="680.81,-114.68 688.07,-106.97 677.59,-108.47 680.81,-114.68"/>
</g>
<!-- ParseFunctionCall_3&#45;&gt;GetNextToken_4 -->
<g id="edge59" class="edge">
<title>ParseFunctionCall_3&#45;&gt;GetNextToken_4</title>
<path fill="none" stroke="black" d="M629.84,-145.12C648.28,-135.63 670.75,-123.44 689.06,-113.04"/>
<polygon fill="black" stroke="black" points="690.79,-116.08 697.71,-108.06 687.3,-110.01 690.79,-116.08"/>
</g>
<!-- ParseFunctionCall_3&#45;&gt;GetNextToken_4 -->
<g id="edge61" class="edge">
<title>ParseFunctionCall_3&#45;&gt;GetNextToken_4</title>
<path fill="none" stroke="black" d="M639.09,-146.15C659.64,-136.83 682.75,-124.61 700.07,-114.04"/>
<polygon fill="black" stroke="black" points="701.69,-117.16 708.26,-108.85 697.94,-111.24 701.69,-117.16"/>
</g>
<!-- GenerateCode_1 -->
<g id="node32" class="node">
<title>GenerateCode_1</title>
<ellipse fill="lightyellow" stroke="lightyellow" cx="1834.04" cy="-306" rx="72.85" ry="18"/>
<text text-anchor="middle" x="1834.04" y="-300.95" font-family="Times,serif" font-size="14.00">GenerateCode_1</text>
</g>
<!-- GenerateCode_0&#45;&gt;GenerateCode_1 -->
<g id="edge67" class="edge">
<title>GenerateCode_0&#45;&gt;GenerateCode_1</title>
<path fill="none" stroke="black" d="M1867.39,-360.05C1862.43,-352.18 1856.42,-342.62 1850.88,-333.79"/>
<polygon fill="black" stroke="black" points="1853.99,-332.16 1845.7,-325.56 1848.06,-335.89 1853.99,-332.16"/>
</g>
<!-- GenerateCode_1&#45;&gt;GenerateCode_2 -->
<g id="edge68" class="edge">
<title>GenerateCode_1&#45;&gt;GenerateCode_2</title>
<path fill="none" stroke="black" d="M1851.71,-288.05C1860.58,-279.54 1871.51,-269.07 1881.3,-259.68"/>
<polygon fill="black" stroke="black" points="1883.64,-262.28 1888.44,-252.84 1878.8,-257.23 1883.64,-262.28"/>
</g>
<!-- SetValue_2 -->
<g id="node35" class="node">
<title>SetValue_2</title>
<ellipse fill="lightyellow" stroke="lightyellow" cx="2299.04" cy="-234" rx="52.89" ry="18"/>
<text text-anchor="middle" x="2299.04" y="-228.95" font-family="Times,serif" font-size="14.00">SetValue_2</text>
</g>
<!-- Store_1&#45;&gt;SetValue_2 -->
<g id="edge73" class="edge">
<title>Store_1&#45;&gt;SetValue_2</title>
<path fill="none" stroke="black" d="M2260,-287.7C2264.31,-279.49 2270.37,-269.52 2276.5,-260.48"/>
<polygon fill="black" stroke="black" points="2279.31,-262.57 2282.22,-252.38 2273.59,-258.53 2279.31,-262.57"/>
</g>
<!-- Store_1&#45;&gt;SetValue_2 -->
<g id="edge89" class="edge">
<title>Store_1&#45;&gt;SetValue_2</title>
<path fill="none" stroke="black" d="M2270.78,-289.12C2276.71,-281.14 2283.2,-271.26 2288.58,-262.14"/>
<polygon fill="black" stroke="black" points="2291.52,-264.05 2293.34,-253.61 2285.41,-260.63 2291.52,-264.05"/>
</g>
<!-- Call_1&#45;&gt;InsertSymbol_2 -->
<g id="edge76" class="edge">
<title>Call_1&#45;&gt;InsertSymbol_2</title>
<path fill="none" stroke="black" d="M2038.17,-293.96C2032.26,-291.78 2025.99,-289.66 2020.04,-288 1935.14,-264.33 1911.46,-269.27 1825.04,-252 1819.89,-250.97 1814.56,-249.88 1809.21,-248.77"/>
<polygon fill="black" stroke="black" points="1810.25,-245.41 1799.74,-246.78 1808.81,-252.26 1810.25,-245.41"/>
</g>
<!-- Interpret_2 -->
<g id="node38" class="node">
<title>Interpret_2</title>
<ellipse fill="lightpink" stroke="lightpink" cx="2050.04" cy="-234" rx="51.86" ry="18"/>
<text text-anchor="middle" x="2050.04" y="-228.95" font-family="Times,serif" font-size="14.00">Interpret_2</text>
</g>
<!-- Call_1&#45;&gt;Interpret_2 -->
<g id="edge77" class="edge">
<title>Call_1&#45;&gt;Interpret_2</title>
<path fill="none" stroke="black" d="M2061.33,-287.7C2059.75,-280.32 2057.86,-271.52 2056.09,-263.25"/>
<polygon fill="black" stroke="black" points="2059.54,-262.63 2054.02,-253.58 2052.69,-264.1 2059.54,-262.63"/>
</g>
<!-- Store_3 -->
<g id="node39" class="node">
<title>Store_3</title>
<ellipse fill="lightcoral" stroke="lightcoral" cx="2050.04" cy="-162" rx="39.58" ry="18"/>
<text text-anchor="middle" x="2050.04" y="-156.95" font-family="Times,serif" font-size="14.00">Store_3</text>
</g>
<!-- Interpret_2&#45;&gt;Store_3 -->
<g id="edge78" class="edge">
<title>Interpret_2&#45;&gt;Store_3</title>
<path fill="none" stroke="black" d="M2050.04,-215.7C2050.04,-208.41 2050.04,-199.73 2050.04,-191.54"/>
<polygon fill="black" stroke="black" points="2053.54,-191.62 2050.04,-181.62 2046.54,-191.62 2053.54,-191.62"/>
</g>
<!-- Load_3 -->
<g id="node41" class="node">
<title>Load_3</title>
<ellipse fill="lightcoral" stroke="lightcoral" cx="2147.04" cy="-162" rx="39.07" ry="18"/>
<text text-anchor="middle" x="2147.04" y="-156.95" font-family="Times,serif" font-size="14.00">Load_3</text>
</g>
<!-- Interpret_2&#45;&gt;Load_3 -->
<g id="edge80" class="edge">
<title>Interpret_2&#45;&gt;Load_3</title>
<path fill="none" stroke="black" d="M2071.56,-217.46C2085.02,-207.75 2102.55,-195.1 2117.32,-184.44"/>
<polygon fill="black" stroke="black" points="2119.28,-187.35 2125.34,-178.66 2115.18,-181.67 2119.28,-187.35"/>
</g>
<!-- Loadi_3 -->
<g id="node43" class="node">
<title>Loadi_3</title>
<ellipse fill="lightpink" stroke="lightpink" cx="2246.04" cy="-162" rx="41.63" ry="18"/>
<text text-anchor="middle" x="2246.04" y="-156.95" font-family="Times,serif" font-size="14.00">Loadi_3</text>
</g>
<!-- Interpret_2&#45;&gt;Loadi_3 -->
<g id="edge82" class="edge">
<title>Interpret_2&#45;&gt;Loadi_3</title>
<path fill="none" stroke="black" d="M2085.08,-220.49C2118.41,-208.58 2168.58,-190.66 2204.04,-178"/>
<polygon fill="black" stroke="black" points="2204.87,-181.42 2213.11,-174.76 2202.52,-174.83 2204.87,-181.42"/>
</g>
<!-- Mul_3 -->
<g id="node44" class="node">
<title>Mul_3</title>
<ellipse fill="lightpink" stroke="lightpink" cx="2342.04" cy="-162" rx="36" ry="18"/>
<text text-anchor="middle" x="2342.04" y="-156.95" font-family="Times,serif" font-size="14.00">Mul_3</text>
</g>
<!-- Interpret_2&#45;&gt;Mul_3 -->
<g id="edge83" class="edge">
<title>Interpret_2&#45;&gt;Mul_3</title>
<path fill="none" stroke="black" d="M2088.97,-221.65C2096.27,-219.66 2103.87,-217.69 2111.04,-216 2192.99,-196.68 2216.03,-202.96 2297.04,-180 2299.3,-179.36 2301.6,-178.65 2303.92,-177.91"/>
<polygon fill="black" stroke="black" points="2304.94,-181.26 2313.25,-174.68 2302.65,-174.64 2304.94,-181.26"/>
</g>
<!-- Rmov_3 -->
<g id="node45" class="node">
<title>Rmov_3</title>
<ellipse fill="lightpink" stroke="lightpink" cx="1865.04" cy="-162" rx="43.16" ry="18"/>
<text text-anchor="middle" x="1865.04" y="-156.95" font-family="Times,serif" font-size="14.00">Rmov_3</text>
</g>
<!-- Interpret_2&#45;&gt;Rmov_3 -->
<g id="edge84" class="edge">
<title>Interpret_2&#45;&gt;Rmov_3</title>
<path fill="none" stroke="black" d="M2016.1,-220.16C1985.36,-208.53 1939.97,-191.35 1906.97,-178.87"/>
<polygon fill="black" stroke="black" points="1908.3,-175.63 1897.7,-175.36 1905.82,-182.17 1908.3,-175.63"/>
</g>
<!-- Ret_3 -->
<g id="node46" class="node">
<title>Ret_3</title>
<ellipse fill="lightpink" stroke="lightpink" cx="1959.04" cy="-162" rx="32.93" ry="18"/>
<text text-anchor="middle" x="1959.04" y="-156.95" font-family="Times,serif" font-size="14.00">Ret_3</text>
</g>
<!-- Interpret_2&#45;&gt;Ret_3 -->
<g id="edge85" class="edge">
<title>Interpret_2&#45;&gt;Ret_3</title>
<path fill="none" stroke="black" d="M2029.39,-217.12C2016.69,-207.35 2000.27,-194.72 1986.49,-184.11"/>
<polygon fill="black" stroke="black" points="1988.7,-181.4 1978.64,-178.08 1984.43,-186.95 1988.7,-181.4"/>
</g>
<!-- SetValue_4 -->
<g id="node40" class="node">
<title>SetValue_4</title>
<ellipse fill="lightcoral" stroke="lightcoral" cx="2036.04" cy="-90" rx="52.89" ry="18"/>
<text text-anchor="middle" x="2036.04" y="-84.95" font-family="Times,serif" font-size="14.00">SetValue_4</text>
</g>
<!-- Store_3&#45;&gt;SetValue_4 -->
<g id="edge79" class="edge">
<title>Store_3&#45;&gt;SetValue_4</title>
<path fill="none" stroke="black" d="M2046.58,-143.7C2045.1,-136.32 2043.34,-127.52 2041.69,-119.25"/>
<polygon fill="black" stroke="black" points="2045.15,-118.71 2039.75,-109.59 2038.28,-120.08 2045.15,-118.71"/>
</g>
<!-- GetValue_4 -->
<g id="node42" class="node">
<title>GetValue_4</title>
<ellipse fill="lightcoral" stroke="lightcoral" cx="2161.04" cy="-90" rx="54.42" ry="18"/>
<text text-anchor="middle" x="2161.04" y="-84.95" font-family="Times,serif" font-size="14.00">GetValue_4</text>
</g>
<!-- Load_3&#45;&gt;GetValue_4 -->
<g id="edge81" class="edge">
<title>Load_3&#45;&gt;GetValue_4</title>
<path fill="none" stroke="black" d="M2150.5,-143.7C2151.97,-136.32 2153.73,-127.52 2155.39,-119.25"/>
<polygon fill="black" stroke="black" points="2158.79,-120.08 2157.32,-109.59 2151.93,-118.71 2158.79,-120.08"/>
</g>
<!-- GetValue_2 -->
<g id="node48" class="node">
<title>GetValue_2</title>
<ellipse fill="lightyellow" stroke="lightyellow" cx="2174.04" cy="-234" rx="54.42" ry="18"/>
<text text-anchor="middle" x="2174.04" y="-228.95" font-family="Times,serif" font-size="14.00">GetValue_2</text>
</g>
<!-- Load_1&#45;&gt;GetValue_2 -->
<g id="edge87" class="edge">
<title>Load_1&#45;&gt;GetValue_2</title>
<path fill="none" stroke="black" d="M2161.99,-287.7C2163.68,-280.32 2165.69,-271.52 2167.58,-263.25"/>
<polygon fill="black" stroke="black" points="2170.97,-264.11 2169.79,-253.58 2164.15,-262.55 2170.97,-264.11"/>
</g>
</g>
</svg>
